<?xml version="1.0" encoding="UTF-8"?>
<svg width="202px" height="96px" viewBox="0 0 202 96" version="1.1" xmlns="http://www.w3.org/2000/svg" xmlns:xlink="http://www.w3.org/1999/xlink">
    <!-- Generator: sketchtool 52.5 (67469) - http://www.bohemiancoding.com/sketch -->
    <title>09BD97B1-A246-48C0-98AD-FC72BAB19B9E</title>
    <desc>Created with sketchtool.</desc>
    <g id="Page-1" stroke="none" stroke-width="1" fill="none" fill-rule="evenodd">
        <g id="about" transform="translate(-51.000000, -49.000000)" fill="#FFFFFF">
            <g id="menu">
                <g id="logo" transform="translate(51.000000, 49.000000)">
                    <polygon id="Fill-1" points="148.481283 74 148.481283 95.4749529 52.5192353 95.4749529 52.5192353 74 52 74 52 96 149 96 149 74"></polygon>
                    <polygon id="Fill-2" points="52 0 52 21 52.5192353 21 52.5192353 0.516923077 148.481283 0.516923077 148.481283 21 149 21 149 0"></polygon>
                    <g id="Group-68" transform="translate(0.000000, 29.000000)">
                        <polygon id="Fill-3" points="0 18.312 1.19434447 18.312 1.19434447 0.0500869565 0 0.0500869565"></polygon>
                        <path d="M15.3451455,15.0509739 L15.3451455,12.9901043 C13.8651969,12.024887 12.3592843,11.5292348 10.8014437,11.5292348 C8.17855938,11.5292348 6.56879075,12.7292348 6.56879075,14.5292348 C6.56879075,16.5384522 8.28241542,17.5297565 10.4639116,17.5297565 C12.5410324,17.5297565 14.3325491,16.4080174 15.3451455,15.0509739 M6.75053882,17.5558435 C5.81583445,16.824887 5.34848226,15.8335826 5.34848226,14.5553217 C5.34848226,13.3292348 5.84179846,12.3379304 6.80246684,11.6074957 C7.78909923,10.8509739 9.00940771,10.4857565 10.4893563,10.4857565 C12.2294643,10.4857565 13.8651969,10.9292348 15.3451455,11.8422783 L15.3451455,10.1988 C15.3451455,7.7988 13.7353769,6.65045217 10.9312638,6.65045217 C9.45079589,6.65045217 8.04873933,7.09393043 6.72457481,7.98088696 L6.72457481,6.78088696 C7.9708473,5.97271304 9.45079589,5.5548 11.1384566,5.5548 C14.3585131,5.5548 16.513526,7.06784348 16.513526,10.0944522 L16.513526,15.6254087 C16.513526,16.6944522 17.0328062,17.3993217 17.8641738,17.3993217 C18.1492586,17.3993217 18.383454,17.3466261 18.5906468,17.2422783 L18.5906468,18.2080174 C18.3569707,18.3384522 18.0194386,18.416713 17.5780504,18.416713 C16.4615979,18.416713 15.5528576,17.6862783 15.4490015,16.2514957 C14.098873,17.8428 12.3333203,18.6254087 10.1263794,18.6254087 C8.82765964,18.6254087 7.7112072,18.2596696 6.75053882,17.5558435" id="Fill-4"></path>
                        <path d="M22.8741892,18.312313 L21.7058087,18.312313 L21.7058087,5.8677913 L22.8741892,5.8677913 L22.8741892,8.03353043 C23.9906416,6.67648696 25.9379424,5.55474783 28.1448833,5.55474783 C31.2870478,5.55474783 32.9487445,7.4330087 32.9487445,10.7465739 L32.9487445,18.312313 L31.780364,18.312313 L31.780364,10.9813565 C31.780364,9.20744348 31.2351198,7.95474783 30.3783075,7.40744348 C29.5474591,6.85961739 28.7685388,6.6504 27.8073512,6.6504 C26.8466828,6.6504 25.9119784,6.93735652 24.977274,7.53787826 C24.0425697,8.11126957 23.3415414,8.79005217 22.8741892,9.54605217 L22.8741892,18.312313 Z" id="Fill-6"></path>
                        <path d="M46.3196386,15.0509739 L46.3196386,12.9901043 C44.83969,12.024887 43.3337774,11.5292348 41.7759368,11.5292348 C39.1530524,11.5292348 37.5432838,12.7292348 37.5432838,14.5292348 C37.5432838,16.5384522 39.2569085,17.5297565 41.4384046,17.5297565 C43.5155254,17.5297565 45.3070422,16.4080174 46.3196386,15.0509739 M37.7250319,17.5558435 C36.7903275,16.824887 36.3229753,15.8335826 36.3229753,14.5553217 C36.3229753,13.3292348 36.8162915,12.3379304 37.7769599,11.6074957 C38.7635923,10.8509739 39.9839008,10.4857565 41.4638494,10.4857565 C43.2039573,10.4857565 44.83969,10.9292348 46.3196386,11.8422783 L46.3196386,10.1988 C46.3196386,7.7988 44.7098699,6.65045217 41.9057568,6.65045217 C40.4252889,6.65045217 39.0232324,7.09393043 37.6990679,7.98088696 L37.6990679,6.78088696 C38.9453404,5.97271304 40.4252889,5.5548 42.1134689,5.5548 C45.3330062,5.5548 47.488019,7.06784348 47.488019,10.0944522 L47.488019,15.6254087 C47.488019,16.6944522 48.0072992,17.3993217 48.8386668,17.3993217 C49.1237517,17.3993217 49.357947,17.3466261 49.5651398,17.2422783 L49.5651398,18.2080174 C49.3314638,18.3384522 48.9939316,18.416713 48.5525434,18.416713 C47.436091,18.416713 46.5273506,17.6862783 46.4234946,16.2514957 C45.0733661,17.8428 43.3078134,18.6254087 41.1008725,18.6254087 C39.8021527,18.6254087 38.6857003,18.2596696 37.7250319,17.5558435" id="Fill-8"></path>
                        <polygon id="Fill-10" points="60.0278051 18.312313 60.0278051 0.0504 61.2481136 0.0504 68.3108437 9.36396522 75.3735738 0.0504 76.5419542 0.0504 76.5419542 18.312313 75.3470905 18.312313 75.3470905 1.90257391 68.7003039 10.668313 67.9213835 10.668313 61.2221496 1.90257391 61.2221496 18.312313"></polygon>
                        <path d="M87.2898082,17.5297043 C88.8216848,17.5297043 90.0939213,17.0079652 91.107037,15.9905739 C92.1455974,14.9470957 92.6648776,13.6422261 92.6648776,12.1030957 C92.6648776,10.5634435 92.1455974,9.25909565 91.107037,8.21561739 C90.0939213,7.17213913 88.8216848,6.6504 87.2898082,6.6504 C85.7579316,6.6504 84.4856951,7.17213913 83.4471347,8.21561739 C82.434019,9.25909565 81.9147388,10.5634435 81.9147388,12.1030957 C81.9147388,13.6422261 82.434019,14.9470957 83.4471347,15.9905739 C84.4856951,17.0079652 85.7579316,17.5297043 87.2898082,17.5297043 M87.2898082,18.6253565 C85.3425075,18.6253565 83.7587028,17.9987478 82.5383943,16.720487 C81.3180859,15.4422261 80.7203943,13.9030957 80.7203943,12.1030957 C80.7203943,10.3025739 81.3180859,8.76344348 82.5383943,7.48518261 C83.7587028,6.20692174 85.3425075,5.55474783 87.2898082,5.55474783 C89.237109,5.55474783 90.7949496,6.20692174 92.0157774,7.48518261 C93.2360859,8.76344348 93.8592221,10.3025739 93.8592221,12.1030957 C93.8592221,13.9030957 93.2360859,15.4422261 92.0157774,16.720487 C90.7949496,17.9987478 89.237109,18.6253565 87.2898082,18.6253565" id="Fill-12"></path>
                        <path d="M96.5065126,17.2948174 L96.5065126,16.0165565 C97.9864612,17.0339478 99.7000859,17.5296 101.595978,17.5296 C104.010631,17.5296 105.568471,16.5643826 105.568471,15.0774261 C105.568471,14.3469913 105.179011,13.8252522 104.426055,13.4339478 C103.673099,13.0426435 102.998034,12.8856 101.855618,12.5725565 L101.336338,12.4421217 C100.271294,12.1551652 99.6481578,11.9991652 98.7913455,11.6078609 C97.6748931,11.0334261 96.8959728,10.2769043 96.8959728,8.92038261 C96.8959728,6.85951304 98.6355614,5.55464348 101.67387,5.55464348 C103.491351,5.55464348 104.971299,5.94594783 106.13968,6.70246957 L106.13968,7.9029913 C104.763587,7.06768696 103.309603,6.65081739 101.751762,6.65081739 C99.3365897,6.65081739 98.0903172,7.56386087 98.0903172,8.92038261 C98.0903172,9.54594783 98.4538134,10.0682087 98.8432735,10.3812522 C99.0255409,10.511687 99.3365897,10.6682087 99.7260499,10.8247304 C100.530934,11.1377739 100.817058,11.2160348 101.855618,11.4508174 L103.309603,11.8160348 C103.621171,11.8942957 104.036595,12.0508174 104.581839,12.2600348 C105.127083,12.4682087 105.516543,12.6769043 105.75022,12.9122087 C106.2695,13.3551652 106.762816,14.1377739 106.762816,15.103513 C106.762816,16.1730783 106.2695,17.0339478 105.282867,17.6861217 C104.322199,18.3122087 103.10189,18.6252522 101.621942,18.6252522 C99.5448211,18.6252522 97.519109,18.0252522 96.5065126,17.2948174" id="Fill-14"></path>
                        <polygon id="Fill-16" points="110.605178 18.312313 110.605178 0.0504 111.773558 0.0504 111.773558 11.1117913 118.291044 5.8677913 120.004669 5.8677913 113.019831 11.5030957 120.939373 18.312313 119.173821 18.312313 111.773558 11.9465739 111.773558 18.312313"></polygon>
                        <path d="M132.545026,15.0509739 L132.545026,12.9901043 C131.065078,12.024887 129.559165,11.5292348 128.001324,11.5292348 C125.37844,11.5292348 123.768671,12.7292348 123.768671,14.5292348 C123.768671,16.5384522 125.482296,17.5297565 127.663792,17.5297565 C129.740913,17.5297565 131.53243,16.4080174 132.545026,15.0509739 M123.95042,17.5558435 C123.015715,16.824887 122.548363,15.8335826 122.548363,14.5553217 C122.548363,13.3292348 123.041679,12.3379304 124.002348,11.6074957 C124.98898,10.8509739 126.209288,10.4857565 127.689237,10.4857565 C129.429345,10.4857565 131.065078,10.9292348 132.545026,11.8422783 L132.545026,10.1988 C132.545026,7.7988 130.935258,6.65045217 128.131144,6.65045217 C126.650677,6.65045217 125.24862,7.09393043 123.924456,7.98088696 L123.924456,6.78088696 C125.170728,5.97271304 126.650677,5.5548 128.338857,5.5548 C131.558394,5.5548 133.713407,7.06784348 133.713407,10.0944522 L133.713407,15.6254087 C133.713407,16.6944522 134.232687,17.3993217 135.064054,17.3993217 C135.349139,17.3993217 135.583335,17.3466261 135.790528,17.2422783 L135.790528,18.2080174 C135.556851,18.3384522 135.219319,18.416713 134.777931,18.416713 C133.661479,18.416713 132.752738,17.6862783 132.648882,16.2514957 C131.298754,17.8428 129.533201,18.6254087 127.32626,18.6254087 C126.02754,18.6254087 124.911088,18.2596696 123.95042,17.5558435" id="Fill-18"></path>
                        <path d="M138.90543,15.7296 L138.90543,0.0502956522 L140.07381,0.0502956522 L140.07381,15.4948174 C140.07381,16.8508174 140.696947,17.5296 141.917255,17.5296 C142.410571,17.5296 142.825995,17.3991652 143.215456,17.1643826 L143.215456,18.2600348 C142.774067,18.4948174 142.228823,18.6252522 141.579723,18.6252522 C140.099774,18.6252522 138.90543,17.8165565 138.90543,15.7296" id="Fill-20"></path>
                        <path d="M155.938236,11.2423826 C155.938236,9.44238261 154.691963,6.65055652 151.368051,6.65055652 C149.914066,6.65055652 148.745686,7.12064348 147.86291,8.05925217 C147.006097,8.97229565 146.512781,10.0418609 146.434889,11.2423826 L155.938236,11.2423826 Z M147.161881,16.7989043 C145.889125,15.5728174 145.240025,14.0076 145.240025,12.1027304 C145.240025,10.2249913 145.811753,8.65977391 146.954169,7.43316522 C148.096586,6.1809913 149.576534,5.55490435 151.394534,5.55490435 C153.471655,5.55490435 155.081424,6.46846957 155.886308,7.82446957 C156.717156,9.15490435 157.106616,10.5119478 157.106616,11.8684696 L157.106616,12.2597739 L146.408925,12.2597739 C146.434889,13.8249913 146.980133,15.1032522 148.044658,16.0684696 C149.109182,17.0342087 150.485275,17.5298609 152.146971,17.5298609 C153.627439,17.5298609 154.977568,17.1385565 156.145948,16.3559478 L156.145948,17.5032522 C155.159316,18.2597739 153.783223,18.6249913 151.991187,18.6249913 C150.043886,18.6249913 148.434118,18.025513 147.161881,16.7989043 Z" id="Fill-22"></path>
                        <path d="M162.038999,18.312313 L160.870619,18.312313 L160.870619,5.8677913 L162.038999,5.8677913 L162.038999,8.03353043 C163.155452,6.67648696 165.102753,5.55474783 167.309694,5.55474783 C170.451858,5.55474783 172.113555,7.4330087 172.113555,10.7465739 L172.113555,18.312313 L170.945174,18.312313 L170.945174,10.9813565 C170.945174,9.20744348 170.39993,7.95474783 169.543118,7.40744348 C168.712269,6.85961739 167.933349,6.6504 166.972161,6.6504 C166.011493,6.6504 165.076789,6.93735652 164.142084,7.53787826 C163.20738,8.11126957 162.506352,8.79005217 162.038999,9.54605217 L162.038999,18.312313 Z" id="Fill-24"></path>
                        <polygon id="Fill-26" points="176.552466 18.312313 176.552466 0.0504 177.720846 0.0504 177.720846 11.1117913 184.238332 5.8677913 185.951957 5.8677913 178.967119 11.5030957 186.886661 18.312313 185.121108 18.312313 177.720846 11.9465739 177.720846 18.312313"></polygon>
                        <path d="M195.013033,17.5297043 C196.54491,17.5297043 197.817146,17.0079652 198.830262,15.9905739 C199.868822,14.9470957 200.388102,13.6422261 200.388102,12.1030957 C200.388102,10.5634435 199.868822,9.25909565 198.830262,8.21561739 C197.817146,7.17213913 196.54491,6.6504 195.013033,6.6504 C193.481156,6.6504 192.20892,7.17213913 191.170359,8.21561739 C190.157244,9.25909565 189.637963,10.5634435 189.637963,12.1030957 C189.637963,13.6422261 190.157244,14.9470957 191.170359,15.9905739 C192.20892,17.0079652 193.481156,17.5297043 195.013033,17.5297043 M195.013033,18.6253565 C193.065732,18.6253565 191.481928,17.9987478 190.261619,16.720487 C189.041311,15.4422261 188.443619,13.9030957 188.443619,12.1030957 C188.443619,10.3025739 189.041311,8.76344348 190.261619,7.48518261 C191.481928,6.20692174 193.065732,5.55474783 195.013033,5.55474783 C196.960334,5.55474783 198.518174,6.20692174 199.739002,7.48518261 C200.959311,8.76344348 201.582447,10.3025739 201.582447,12.1030957 C201.582447,13.9030957 200.959311,15.4422261 199.739002,16.720487 C198.518174,17.9987478 196.960334,18.6253565 195.013033,18.6253565" id="Fill-28"></path>
                        <path d="M6.66620771,33.1034087 L9.9220946,33.1034087 L8.29415116,28.9900174 L6.66620771,33.1034087 Z M8.3928144,28.7917565 L8.44214602,28.8413217 L11.1548658,35.6797565 L11.1055342,35.7298435 L11.006871,35.7298435 L10.9575393,35.6797565 L10.0005059,33.3016696 L6.58727712,33.3016696 L5.6302437,35.6797565 L5.58143136,35.7298435 L5.48276812,35.7298435 L5.43291722,35.6797565 L8.1461563,28.8413217 L8.19548792,28.7917565 L8.3928144,28.7917565 Z" id="Fill-30"></path>
                        <path d="M16.0888067,32.1618783 L17.2722463,32.1618783 C18.209547,32.1618783 19.3244416,31.7648348 19.3244416,30.5757913 C19.3244416,29.5354435 18.6042,28.9902261 17.470092,28.9902261 L16.0888067,28.9902261 L16.0888067,32.1618783 Z M17.470092,28.7919652 C18.7521949,28.7919652 19.5415008,29.4357913 19.5415008,30.5757913 C19.5415008,31.6662261 18.7028632,32.1618783 17.8148941,32.340313 L20.3302874,35.6799652 L20.2814751,35.7300522 L20.1334802,35.7300522 L20.0841486,35.6799652 L17.5687553,32.3601391 L16.0888067,32.3601391 L16.0888067,35.6799652 L16.0394751,35.7300522 L15.9408118,35.7300522 L15.8914802,35.6799652 L15.8914802,28.8415304 L15.9408118,28.7919652 L17.470092,28.7919652 Z" id="Fill-32"></path>
                        <path d="M30.2460468,29.6341565 C29.5554041,29.0889391 28.7660982,28.841113 27.9279799,28.841113 C26.0533784,28.841113 24.4944992,30.3776348 24.4944992,32.2605913 C24.4944992,34.1440696 26.0533784,35.6800696 27.9279799,35.6800696 C28.7660982,35.6800696 29.5554041,35.4322435 30.2460468,34.8870261 L30.2953784,34.9365913 L30.2953784,35.1353739 C29.6540674,35.601287 28.8647614,35.8788522 27.9279799,35.8788522 C25.9053835,35.8788522 24.2774401,34.2432 24.2774401,32.2605913 C24.2774401,30.2785043 25.9053835,28.6433739 27.9279799,28.6433739 C28.8647614,28.6433739 29.6540674,28.9204174 30.2953784,29.3863304 L30.2953784,29.5845913 L30.2460468,29.6341565 Z" id="Fill-34"></path>
                        <polygon id="Fill-36" points="35.6731481 28.7919652 35.7224797 28.8415304 35.7224797 31.8149217 40.2604694 31.8149217 40.2604694 28.8415304 40.309801 28.7919652 40.4084643 28.7919652 40.4577959 28.8415304 40.4577959 35.6799652 40.4084643 35.7300522 40.309801 35.7300522 40.2604694 35.6799652 40.2604694 32.0131826 35.7224797 32.0131826 35.7224797 35.6799652 35.6731481 35.7300522 35.5744848 35.7300522 35.5251532 35.6799652 35.5251532 28.8415304 35.5744848 28.7919652"></polygon>
                        <polygon id="Fill-38" points="46.032892 28.7919652 46.0822237 28.8415304 46.0822237 35.6799652 46.032892 35.7300522 45.9342288 35.7300522 45.8848972 35.6799652 45.8848972 28.8415304 45.9342288 28.7919652"></polygon>
                        <polygon id="Fill-40" points="56.2929861 28.7919652 56.3423177 28.8415304 56.3423177 28.9401391 56.2929861 28.9902261 53.6789296 28.9902261 53.6789296 35.6799652 53.6295979 35.7300522 53.5309347 35.7300522 53.4816031 35.6799652 53.4816031 28.9902261 50.8675465 28.9902261 50.8182149 28.9401391 50.8182149 28.8415304 50.8675465 28.7919652"></polygon>
                        <polygon id="Fill-42" points="64.4822946 28.7919652 64.5316262 28.8415304 64.5316262 28.9401391 64.4822946 28.9902261 61.2762586 28.9902261 61.2762586 31.8149217 63.6929887 31.8149217 63.7423203 31.864487 63.7423203 31.9636174 63.6929887 32.0131826 61.2762586 32.0131826 61.2762586 35.5317913 64.7782843 35.5317913 64.8276159 35.5813565 64.8276159 35.6799652 64.7782843 35.7300522 61.1282638 35.7300522 61.0789321 35.6799652 61.0789321 28.8415304 61.1282638 28.7919652"></polygon>
                        <path d="M74.742856,29.6341565 C74.0522134,29.0889391 73.2629075,28.841113 72.4247892,28.841113 C70.5501877,28.841113 68.9913085,30.3776348 68.9913085,32.2605913 C68.9913085,34.1440696 70.5501877,35.6800696 72.4247892,35.6800696 C73.2629075,35.6800696 74.0522134,35.4322435 74.742856,34.8870261 L74.7921877,34.9365913 L74.7921877,35.1353739 C74.1508766,35.601287 73.3615707,35.8788522 72.4247892,35.8788522 C70.4021928,35.8788522 68.7742494,34.2432 68.7742494,32.2605913 C68.7742494,30.2785043 70.4021928,28.6433739 72.4247892,28.6433739 C73.3615707,28.6433739 74.1508766,28.9204174 74.7921877,29.3863304 L74.7921877,29.5845913 L74.742856,29.6341565 Z" id="Fill-44"></path>
                        <polygon id="Fill-46" points="84.8064545 28.7919652 84.8557861 28.8415304 84.8557861 28.9401391 84.8064545 28.9902261 82.1923979 28.9902261 82.1923979 35.6799652 82.1430663 35.7300522 82.0444031 35.7300522 81.9950715 35.6799652 81.9950715 28.9902261 79.3810149 28.9902261 79.3316833 28.9401391 79.3316833 28.8415304 79.3810149 28.7919652"></polygon>
                        <path d="M89.7403954,28.7919652 L89.789727,28.8415304 L89.789727,32.6570087 C89.789727,34.5900522 90.7270278,35.6799652 92.2557887,35.6799652 C93.7850689,35.6799652 94.7223697,34.5900522 94.7223697,32.6570087 L94.7223697,28.8415304 L94.771182,28.7919652 L94.8698452,28.7919652 L94.9196961,28.8415304 L94.9196961,32.6570087 C94.9196961,34.6891826 93.9330638,35.8787478 92.2557887,35.8787478 C90.5790329,35.8787478 89.5924005,34.6891826 89.5924005,32.6570087 L89.5924005,28.8415304 L89.6417321,28.7919652 L89.7403954,28.7919652 Z" id="Fill-48"></path>
                        <path d="M100.543864,32.1618783 L101.727304,32.1618783 C102.664605,32.1618783 103.779499,31.7648348 103.779499,30.5757913 C103.779499,29.5354435 103.059258,28.9902261 101.92515,28.9902261 L100.543864,28.9902261 L100.543864,32.1618783 Z M101.92515,28.7919652 C103.207252,28.7919652 103.996558,29.4357913 103.996558,30.5757913 C103.996558,31.6662261 103.157921,32.1618783 102.269952,32.340313 L104.785345,35.6799652 L104.736533,35.7300522 L104.588538,35.7300522 L104.539206,35.6799652 L102.023813,32.3601391 L100.543864,32.3601391 L100.543864,35.6799652 L100.494533,35.7300522 L100.395869,35.7300522 L100.346538,35.6799652 L100.346538,28.8415304 L100.395869,28.7919652 L101.92515,28.7919652 Z" id="Fill-50"></path>
                        <polygon id="Fill-52" points="112.925426 28.7919652 112.974757 28.8415304 112.974757 28.9401391 112.925426 28.9902261 109.71939 28.9902261 109.71939 31.8149217 112.13612 31.8149217 112.185451 31.864487 112.185451 31.9636174 112.13612 32.0131826 109.71939 32.0131826 109.71939 35.5317913 113.221415 35.5317913 113.270747 35.5813565 113.270747 35.6799652 113.221415 35.7300522 109.571395 35.7300522 109.522063 35.6799652 109.522063 28.8415304 109.571395 28.7919652"></polygon>
                        <path d="M126.915821,30.0305739 C126.915821,29.376313 126.422505,28.8415304 125.811312,28.8415304 C125.189214,28.8415304 124.686551,29.376313 124.686551,30.0305739 C124.686551,30.6749217 125.455605,31.4184 125.652932,31.6662261 C125.998253,31.4184 126.915821,30.6749217 126.915821,30.0305739 Z M123.946577,33.9258783 C123.946577,34.8973565 124.686551,35.6799652 125.604119,35.6799652 C126.392906,35.6799652 127.083549,35.0361391 127.695261,34.1935304 C126.984885,33.4505739 126.294243,32.7070957 125.652932,31.9636174 C124.913477,32.508313 123.946577,33.1036174 123.946577,33.9258783 Z M129.253621,32.0627478 C128.95815,32.6074435 128.514166,33.400487 127.971518,34.1935304 C128.514166,34.7382261 129.006962,35.1848348 129.54961,35.6705739 L129.500798,35.7300522 L129.302952,35.7300522 C128.859487,35.3335304 128.316839,34.8378783 127.843256,34.3422261 C127.231543,35.1848348 126.491569,35.8787478 125.604119,35.8787478 C124.568155,35.8787478 123.729518,35.0064 123.729518,33.9258783 C123.729518,33.0039652 124.765482,32.3601391 125.505456,31.8149217 C125.208947,31.4679652 124.469492,30.724487 124.469492,30.0305739 C124.469492,29.2672696 125.061471,28.6432696 125.801446,28.6432696 C126.540901,28.6432696 127.13288,29.2672696 127.13288,30.0305739 C127.13288,30.724487 126.244911,31.4679652 125.801446,31.8149217 C126.442238,32.5584 127.083549,33.3018783 127.823523,34.0448348 C128.316839,33.3509217 128.760824,32.5584 129.056813,32.0131826 L129.214155,32.0131826 L129.253621,32.0627478 Z" id="Fill-54"></path>
                        <path d="M140.699595,35.5317391 L142.08088,35.5317391 C144.004294,35.5317391 145.513842,34.0943478 145.513842,32.2604348 C145.513842,30.4270435 144.004294,28.9901739 142.08088,28.9901739 L140.699595,28.9901739 L140.699595,35.5317391 Z M142.08088,28.791913 C144.201621,28.791913 145.730381,30.327913 145.730381,32.2604348 C145.730381,34.194 144.201621,35.73 142.08088,35.73 L140.5516,35.73 L140.502268,35.679913 L140.502268,28.8414783 L140.5516,28.791913 L142.08088,28.791913 Z" id="Fill-56"></path>
                        <polygon id="Fill-58" points="154.1664 28.7919652 154.215732 28.8415304 154.215732 28.9401391 154.1664 28.9902261 150.960364 28.9902261 150.960364 31.8149217 153.377094 31.8149217 153.426426 31.864487 153.426426 31.9636174 153.377094 32.0131826 150.960364 32.0131826 150.960364 35.5317913 154.46239 35.5317913 154.511721 35.5813565 154.511721 35.6799652 154.46239 35.7300522 150.812369 35.7300522 150.763038 35.6799652 150.763038 28.8415304 150.812369 28.7919652"></polygon>
                        <path d="M162.404884,29.7335478 C162.059563,29.1883304 161.566247,28.8413739 160.875604,28.8413739 C160.096165,28.8413739 159.46472,29.4653739 159.46472,30.2286783 C159.46472,31.8643304 162.996864,31.8643304 162.996864,33.8469391 C162.996864,34.9665913 162.089162,35.8785913 160.974267,35.8785913 C159.988154,35.8785913 159.24818,35.3333739 158.902859,34.4412 L159.001522,34.3921565 L159.100185,34.3921565 C159.396175,35.2342435 160.185481,35.6798087 160.974267,35.6798087 C161.970766,35.6798087 162.779805,34.8575478 162.779805,33.8469391 C162.779805,32.0625913 159.24818,32.0625913 159.24818,30.2286783 C159.24818,29.3563304 159.978288,28.643113 160.875604,28.643113 C161.66491,28.643113 162.256889,29.0892 162.602211,29.6834609 L162.503548,29.7335478 L162.404884,29.7335478 Z" id="Fill-60"></path>
                        <polygon id="Fill-62" points="168.374062 28.7919652 168.423394 28.8415304 168.423394 35.6799652 168.374062 35.7300522 168.275399 35.7300522 168.226067 35.6799652 168.226067 28.8415304 168.275399 28.7919652"></polygon>
                        <path d="M179.7194,29.5353391 C179.028757,28.9901217 178.140788,28.8414261 177.30267,28.8414261 C175.329405,28.8414261 173.770526,30.3774261 173.770526,32.2609043 C173.770526,34.1438609 175.378737,35.6798609 177.351482,35.6798609 C178.140788,35.6798609 179.078089,35.4127304 179.670068,34.9666435 L179.670068,32.4096 L177.548809,32.4096 L177.499996,32.3600348 L177.499996,32.2609043 L177.548809,32.2113391 L179.818063,32.2113391 L179.867395,32.2609043 L179.867395,35.0856 C179.127421,35.6308174 178.239451,35.8786435 177.351482,35.8786435 C175.230742,35.8786435 173.553467,34.2925565 173.553467,32.2609043 C173.553467,30.2788174 175.18141,28.6431652 177.30267,28.6431652 C178.239451,28.6431652 179.127421,28.8111652 179.768732,29.2869913 L179.768732,29.4852522 L179.7194,29.5353391 Z" id="Fill-64"></path>
                        <polygon id="Fill-66" points="185.373634 28.7919652 185.472298 28.8415304 190.32601 35.4326609 190.32601 28.8415304 190.374822 28.7919652 190.473485 28.7919652 190.523336 28.8415304 190.523336 35.6799652 190.473485 35.7300522 190.355609 35.7300522 190.256946 35.6799652 185.393367 29.0888348 185.393367 35.6799652 185.344035 35.7300522 185.245372 35.7300522 185.196041 35.6799652 185.196041 28.8415304 185.245372 28.7919652"></polygon>
                    </g>
                </g>
            </g>
        </g>
    </g>
</svg>